<?xml version="1.0" encoding="UTF-8"?>
<svg xmlns="http://www.w3.org/2000/svg" xmlns:xlink="http://www.w3.org/1999/xlink" width="850.5" height="850.5" viewBox="0 0 850.5 850.5">
<path fill-rule="evenodd" fill="rgb(100%, 100%, 100%)" fill-opacity="1" d="M 0 850.5 L 850.5 850.5 L 850.5 0 L 0 0 Z M 0 850.5 "/>
<path fill="none" stroke-width="100.01" stroke-linecap="butt" stroke-linejoin="miter" stroke="rgb(0%, 0%, 0%)" stroke-opacity="1" stroke-miterlimit="10" d="M 683.121094 794.628906 L 58.125 170.988281 " transform="matrix(1, 0, 0, -1, 0, 850.5)"/>
<path fill="none" stroke-width="100.01" stroke-linecap="butt" stroke-linejoin="miter" stroke="rgb(0%, 0%, 0%)" stroke-opacity="1" stroke-miterlimit="10" d="M 426.058594 536.46875 L 170.621094 794.628906 " transform="matrix(1, 0, 0, -1, 0, 850.5)"/>
<path fill="none" stroke-width="100.01" stroke-linecap="butt" stroke-linejoin="miter" stroke="rgb(0%, 0%, 0%)" stroke-opacity="1" stroke-miterlimit="10" d="M 793.371094 679.128906 L 168.371094 55.484375 " transform="matrix(1, 0, 0, -1, 0, 850.5)"/>
<path fill="none" stroke-width="100.01" stroke-linecap="butt" stroke-linejoin="miter" stroke="rgb(0%, 0%, 0%)" stroke-opacity="1" stroke-miterlimit="10" d="M 793.558594 170.46875 L 538.128906 428.628906 " transform="matrix(1, 0, 0, -1, 0, 850.5)"/>
<path fill="none" stroke-width="100.01" stroke-linecap="butt" stroke-linejoin="miter" stroke="rgb(0%, 0%, 0%)" stroke-opacity="1" stroke-miterlimit="10" d="M 682.558594 55.722656 L 427.128906 313.878906 " transform="matrix(1, 0, 0, -1, 0, 850.5)"/>
<path fill="none" stroke-width="100.01" stroke-linecap="butt" stroke-linejoin="miter" stroke="rgb(0%, 0%, 0%)" stroke-opacity="1" stroke-miterlimit="10" d="M 313.460938 425.140625 L 59.625 676.128906 " transform="matrix(1, 0, 0, -1, 0, 850.5)"/>
</svg>
