<?xml version="1.0" encoding="UTF-8"?>
<svg xmlns="http://www.w3.org/2000/svg" xmlns:xlink="http://www.w3.org/1999/xlink" width="850.5" height="850.5" viewBox="0 0 850.5 850.5">
<defs>
<clipPath id="clip-0">
<path clip-rule="nonzero" d="M 0 59 L 736 59 L 736 850.5 L 0 850.5 Z M 0 59 "/>
</clipPath>
<clipPath id="clip-1">
<path clip-rule="nonzero" d="M 424 59 L 850.5 59 L 850.5 479 L 424 479 Z M 424 59 "/>
</clipPath>
</defs>
<path fill-rule="evenodd" fill="rgb(100%, 100%, 100%)" fill-opacity="1" d="M 0 850.5 L 850.5 850.5 L 850.5 0 L 0 0 Z M 0 850.5 "/>
<path fill="none" stroke-width="6.0009" stroke-linecap="butt" stroke-linejoin="miter" stroke="rgb(0%, 0%, 0%)" stroke-opacity="1" stroke-miterlimit="10" d="M 141 819 L 763.28125 199.441406 " transform="matrix(1, 0, 0, -1, 0, 850.5)"/>
<g clip-path="url(#clip-0)">
<path fill="none" stroke-width="6.0009" stroke-linecap="butt" stroke-linejoin="miter" stroke="rgb(0%, 0%, 0%)" stroke-opacity="1" stroke-miterlimit="10" d="M 25.5 706.5 L 650.5 82.859375 " transform="matrix(1, 0, 0, -1, 0, 850.5)"/>
</g>
<path fill="none" stroke-width="6.0009" stroke-linecap="butt" stroke-linejoin="miter" stroke="rgb(0%, 0%, 0%)" stroke-opacity="1" stroke-miterlimit="10" d="M 282.289062 450 L 25.5 200 " transform="matrix(1, 0, 0, -1, 0, 850.5)"/>
<path fill="none" stroke-width="6.0009" stroke-linecap="butt" stroke-linejoin="miter" stroke="rgb(0%, 0%, 0%)" stroke-opacity="1" stroke-miterlimit="10" d="M 650.539062 819 L 393.75 569 " transform="matrix(1, 0, 0, -1, 0, 850.5)"/>
<g clip-path="url(#clip-1)">
<path fill="none" stroke-width="6.0009" stroke-linecap="butt" stroke-linejoin="miter" stroke="rgb(0%, 0%, 0%)" stroke-opacity="1" stroke-miterlimit="10" d="M 766.039062 706.5 L 509.25 456.5 " transform="matrix(1, 0, 0, -1, 0, 850.5)"/>
</g>
<path fill="none" stroke-width="6.0009" stroke-linecap="butt" stroke-linejoin="miter" stroke="rgb(0%, 0%, 0%)" stroke-opacity="1" stroke-miterlimit="10" d="M 392.539062 336.75 L 135.75 86.75 " transform="matrix(1, 0, 0, -1, 0, 850.5)"/>
</svg>
