<?xml version="1.0" encoding="UTF-8"?>
<svg xmlns="http://www.w3.org/2000/svg" xmlns:xlink="http://www.w3.org/1999/xlink" width="850.5" height="850.5" viewBox="0 0 850.5 850.5">
<path fill-rule="evenodd" fill="rgb(100%, 100%, 100%)" fill-opacity="1" d="M 0 850.5 L 850.5 850.5 L 850.5 0 L 0 0 Z M 0 850.5 "/>
<path fill="none" stroke-width="6.0009" stroke-linecap="butt" stroke-linejoin="miter" stroke="rgb(1.568604%, 14.099121%, 19.999695%)" stroke-opacity="1" stroke-miterlimit="10" d="M 595.171875 546 L 599.25 429.210938 C 597.660156 419.019531 593.578125 387.109375 589.730469 368.101562 C 585.878906 349.078125 583.160156 332.789062 576.140625 315.128906 C 569.109375 297.480469 556.421875 277.109375 547.578125 262.171875 C 538.738281 247.230469 534.441406 237.269531 523.109375 225.5 C 511.78125 213.730469 492.738281 199.929688 479.601562 191.550781 C 466.449219 183.179688 471.671875 184.761719 444.238281 175.25 C 416.820312 165.75 355.859375 144.46875 315.070312 134.511719 C 274.28125 124.550781 214.460938 117.078125 199.5 115.5 " transform="matrix(1, 0, 0, -1, 0, 850.5)"/>
<path fill="none" stroke-width="6.0009" stroke-linecap="butt" stroke-linejoin="miter" stroke="rgb(1.568604%, 14.099121%, 19.999695%)" stroke-opacity="1" stroke-miterlimit="10" d="M 259.429688 539.25 C 255.128906 518.859375 250.828125 498.480469 249.929688 479.449219 C 249.019531 460.421875 251.738281 444.109375 254 425.089844 C 256.261719 406.058594 259.660156 384.089844 263.5 365.289062 C 267.351562 346.488281 269.390625 330.859375 277.078125 312.28125 C 284.769531 293.710938 299.710938 269.46875 309.660156 253.839844 C 319.621094 238.210938 327.761719 228.25 336.808594 218.511719 C 345.859375 208.769531 350.160156 204.460938 363.960938 195.398438 C 377.769531 186.339844 381.160156 177.960938 419.621094 164.140625 C 458.089844 150.328125 563.300781 122.921875 594.75 112.5 " transform="matrix(1, 0, 0, -1, 0, 850.5)"/>
<path fill="none" stroke-width="6.0009" stroke-linecap="butt" stroke-linejoin="miter" stroke="rgb(1.568604%, 14.099121%, 19.999695%)" stroke-opacity="1" stroke-miterlimit="10" d="M 259.5 539.25 C 262.671875 557.851562 265.828125 576.449219 271.71875 595.050781 C 277.601562 613.648438 285.289062 632.929688 294.789062 650.851562 C 304.289062 668.769531 319.671875 691.21875 328.71875 702.570312 C 337.769531 713.910156 343.429688 714.128906 349.078125 718.898438 C 354.738281 723.660156 357 727.058594 362.648438 731.148438 C 368.308594 735.230469 375.769531 740.21875 383.011719 743.390625 C 390.25 746.570312 398.621094 748.609375 406.089844 750.199219 C 413.550781 751.789062 420.339844 753.378906 427.800781 752.921875 C 435.269531 752.46875 442.730469 749.519531 450.878906 747.480469 C 459.019531 745.441406 469.429688 743.621094 476.671875 740.671875 C 483.898438 737.71875 488.660156 733.640625 494.308594 729.78125 C 499.96875 725.929688 505.398438 721.851562 510.601562 717.539062 C 515.800781 713.230469 521.679688 708.460938 525.53125 703.929688 C 529.371094 699.390625 530.050781 695.761719 533.671875 690.320312 C 537.289062 684.871094 543.171875 676.929688 547.238281 671.261719 C 551.320312 665.589844 554.941406 662.421875 558.101562 656.289062 C 561.269531 650.171875 566.25 634.519531 566.25 634.519531 C 568.960938 627.261719 571.679688 620.230469 574.390625 612.738281 C 577.109375 605.261719 579.820312 597.769531 582.53125 589.609375 C 585.25 581.441406 588.640625 571.460938 590.679688 563.75 C 592.710938 556.039062 592.039062 553.089844 594.75 543.328125 " transform="matrix(1, 0, 0, -1, 0, 850.5)"/>
</svg>
